<?xml version="1.0" encoding="UTF-8"?>
<svg xmlns="http://www.w3.org/2000/svg" xml:space="preserve" viewBox="0 0 304.8 304.8" style="shape-rendering:geometricPrecision; text-rendering:geometricPrecision; image-rendering:optimizeQuality; fill-rule:evenodd; clip-rule:evenodd">
 <path fill="#010101" d="M251.32 268.59l0.01 -94.92c4.33,-1.47 15.94,-9.98 19.4,-13.77 0.53,-0.58 1.07,-1.03 1.62,-1.61l6.18 -7.25c0.56,-0.76 0.89,-1.55 1.56,-1.94 -0.19,24.66 -0.02,49.43 0.01,74.1 0.02,12.33 -0.68,21.6 -6.85,30.18 -2.84,3.95 -5.16,6.58 -9.11,9.42 -2.96,2.13 -8.15,5.17 -12.82,5.79zm-121.63 -0.03c-0.27,-15.77 -0.03,-31.88 0.01,-47.68 0.05,-16.32 -0.31,-26.37 6.28,-41.58 8.52,-19.68 27.8,-37.59 55.01,-40.6 16.33,-1.8 27.99,2.53 41.59,-6.06 36.45,-23.04 2.98,-62.39 31.87,-87.79 3.75,-3.3 10.29,-7.59 15.62,-8.41 0.21,7.86 0.01,15.93 0.04,23.82 0.02,7.94 0.05,15.9 0.01,23.84 -0.03,7.95 0.2,15.38 -0.7,23.15 -1.81,15.46 -9.32,29.45 -19.69,40.03 -2.12,2.15 -3.91,3.65 -6.42,5.63 -9.55,7.51 -21.5,12.31 -34.21,13.7 -16.66,1.81 -27.89,-2.64 -41.64,6.03 -8.75,5.53 -16.96,14.98 -18.89,29.03 -2.01,14.74 2.04,31.04 -3.16,44.73 -2.25,5.93 -5.42,10.21 -9.66,14.19 -2.51,2.35 -11,7.92 -16.06,7.97zm-105.04 -112.98c-0.07,-11.72 -0.05,-23.43 -0.06,-35.15 -0.01,-8.29 -0.29,-27.57 0.42,-34.74 1.47,-15.01 7.28,-26.24 17.14,-35.63 9.98,-9.5 23.13,-14.56 37.97,-14.72 11.7,-0.12 23.47,-0.02 35.18,-0.02 23.35,0 46.72,-0.09 70.07,0 -0.31,3.2 -2.28,8.03 -3.68,10.55 -3.29,5.97 -8.36,10.82 -14.47,14 -8.88,4.61 -13.98,4.63 -23.91,4.6l-42.59 -0.01c-8.69,0 -19.2,-0.82 -26.77,1.66 -7.22,2.37 -12.79,7.09 -15.95,12.52 -4.62,7.95 -4.47,13.74 -4.47,23.97 0,4.79 0,9.57 0.01,14.35 0,4.12 0.35,10.22 -0.06,14.1 -5.74,2.7 -11.98,7.31 -16.07,10.78l-6.75 6.67c-1.09,1.23 -2.13,2.2 -3.15,3.56 -0.43,0.57 -2.38,3.23 -2.86,3.51zm-16.81 130.42c2.78,0.41 9.91,0.13 13.04,0.04 3.67,-0.1 8.04,-0.89 11.43,-1.88 7.05,-2.05 13.07,-5.34 17.68,-9.15 5.47,-4.53 8.9,-8.34 12.58,-14.28 8.95,-14.46 8.02,-28.86 8,-45.63 -0.01,-9.57 -0.55,-15.9 4.37,-22.54 9.63,-12.96 20.8,-6.95 36.75,-10.21 1.62,-0.34 3.93,-1.07 5.4,-1.22 -0.35,1.63 -0.94,3.54 -1.36,5.24 -0.45,1.78 -0.82,3.77 -1.24,5.7 -2.39,10.9 -1.66,27.82 -1.69,39.23 -0.01,4.17 -0.26,51.82 0.08,54.73 7.24,0.78 18.63,-0.06 25.62,-2.37 10.11,-3.34 16.96,-8.22 23.3,-15.58 7.8,-9.03 12.51,-20.81 13.18,-33.3 0.5,-9.29 -0.32,-18.94 0.15,-28.22 0.46,-8.9 4.64,-15.01 9.62,-18.75 9.31,-7 22.54,-2.96 37.75,-4.84 2.13,-0.27 4.12,-0.57 6.17,-0.98 1.56,-0.32 4.44,-1.26 5.77,-1.31l0.07 105.39c12.13,1.01 24.51,-0.67 34.67,-6.43 8.54,-4.85 15.55,-12.19 20.5,-20.7 6.46,-11.09 7.35,-21.29 7.36,-33.89l-0.01 -185.62c0,-6.81 0.26,-14.15 -0.03,-20.89 -19.46,-0.9 -35.29,4.15 -47.64,17.7 -5.46,5.99 -9.3,12.58 -11.99,20.65 -3.27,9.77 -2.86,18.78 -2.87,29.75 -0.01,12.21 1.16,18.93 -5.47,27.17 -14.32,17.82 -37.59,-3.37 -76.58,21.32 -7.22,4.58 -10.07,7.51 -15.75,12.72 -2.98,2.73 -4.58,4.85 -8.2,8 -3.9,3.39 -7.6,5.76 -12.75,7.84 -4.09,1.67 -8.28,2.71 -13.18,3.1 -9.12,0.74 -17.55,-1.27 -28.03,4.53 -1.88,1.04 -3.4,2.07 -4.92,3.19 -8.27,6.07 -13.53,15.03 -15.53,25.46 -0.87,4.5 -0.58,10.74 -0.59,15.59 -0.01,16.69 1.71,27.63 -8.42,40.64 -2.01,2.59 -5.56,5.83 -8.69,7.75 -2.44,1.5 -8.27,4.72 -11.76,4.55 -0.25,-9.9 0.02,-20.08 -0.01,-30.03 -0.03,-10.05 -0.18,-20.28 0,-30.32 0.22,-12.6 3.35,-25.42 9.42,-35.89 1.87,-3.23 3.96,-6.6 6.14,-9.14 5.58,-6.49 7.91,-8.94 15.79,-14.29 5.83,-3.95 13.38,-7.16 21.39,-8.92 9.24,-2.04 18.82,-1.59 28.68,-1.58 10.05,0.01 20.37,-0.24 30.37,0.03 0.39,-4.72 2.24,-12 2.06,-16.52 -11.68,-0.2 -23.5,0.02 -35.2,-0.01 -10.84,-0.02 -18.54,-0.49 -29.02,1.74 -1.17,0.26 -2.63,0.79 -3.66,0.88 0.01,-4.96 0.02,-9.93 0.01,-14.89 -0.02,-8.61 -1.64,-19.86 4.64,-25.02 3.3,-2.7 6.13,-3.36 11.59,-3.38 19.83,-0.07 39.66,0 59.48,-0.01 24.94,-0.02 45.27,-12.32 53.69,-35.48 1.36,-3.75 2.19,-7.85 2.59,-12.26 0.36,-4.05 0.4,-10.63 0.12,-14.75 -2.56,-0.39 -53.47,-0.1 -57.55,-0.11 -19.29,-0.02 -38.58,0.01 -57.86,-0.01 -18.94,-0.02 -30.6,1.67 -46.57,11.35 -11.45,6.94 -21.08,18.88 -26.76,31.11 -7.4,15.92 -6.21,32.5 -6.23,51.56l0 115.73c0.02,4.63 -0.25,54.74 0.1,57.71z"/>
</svg>
