<?xml version="1.0" encoding="UTF-8"?>
<svg xmlns="http://www.w3.org/2000/svg" xml:space="preserve" viewBox="0 0 1185.32 211.66" style="shape-rendering:geometricPrecision; text-rendering:geometricPrecision; image-rendering:optimizeQuality; fill-rule:evenodd; clip-rule:evenodd">
 <g>
  <path fill="#010101" d="M685.02 93.82c53.31,-12.54 63.44,64.81 20.18,75.24 -51.15,12.32 -63.63,-65.03 -20.18,-75.24zm48.33 85.51c1.68,4.3 1.17,10.52 2.2,15.71l28.5 0.22 -0.21 -126.83 -28.7 -0.59 -2.35 14.18c-2.11,-0.78 -27.28,-30.77 -71.14,-11.07 -46.97,21.1 -45.86,102.47 1.09,121.53 20.11,8.16 47.5,8.59 64.64,-7.11 2.53,-2.31 3.24,-4.27 5.97,-6.04z"/>
  <path fill="#010101" d="M1085.41 118.42c0.04,-7.48 7.34,-14.73 11.43,-18.19 17.53,-14.84 55.31,-7.95 56.75,18.61l-68.18 -0.42zm92.59 60.63c-1.54,-2.3 -17.39,-16.42 -20.49,-18.31 -12.73,8.11 -22.74,14.37 -43.13,10.95 -8.36,-1.4 -14.39,-4.63 -19.25,-8.57 -3.43,-2.77 -10.42,-10.75 -9.69,-18.09 4.33,-1.71 76.1,-1.09 91.21,-0.68 9.76,0.26 8.47,0.52 8.63,-10.17 1.05,-74.65 -73.18,-79.63 -106.06,-57.29 -12.68,8.61 -25.14,24.56 -27.45,46.98 -2.11,20.44 3.16,42.64 17.52,56.49 15.5,14.95 31.23,20.43 54.79,20.18 18.06,-0.19 46.16,-8.08 53.92,-21.49z"/>
  <path fill="#010101" d="M372.76 115.77c0.13,-8.01 7.16,-14.8 11.07,-17.99 5.2,-4.25 13.22,-7.16 22.06,-7.42 18.08,-0.54 32.79,9.38 33.82,25.8l-66.95 -0.39zm92.03 59.46l-19.75 -18.56c-6.66,2.95 -9.63,6.82 -18.37,9.76 -7.29,2.45 -16.78,3.51 -24.79,2.27 -15.01,-2.32 -26.91,-12.52 -29.44,-27.21l98.09 -0.09c4.18,-15.46 -1,-39.16 -8.3,-50.22 -19.9,-30.11 -58.61,-34.27 -87.73,-20.85 -13.73,6.32 -24.09,17.4 -30.04,32.01 -12.11,29.7 -2.75,70.11 28.14,86.09 14.01,7.25 33.77,10.42 51.47,7.87 16.16,-2.32 34.7,-12.09 40.72,-21.07z"/>
  <path fill="#010101" d="M488.32 97.87l0.22 87.87c-0.01,9.43 -1.48,8.55 8.03,8.41l23.52 -0.18 -0.1 -43.57c0.15,-17.69 -2.77,-33.87 8.18,-45.79 11.61,-12.63 28.38,-14.04 39.42,-6.11 12.4,8.91 12.42,22.81 12.47,41.4 0.04,16.66 1.17,38.24 -0.18,54.34l31.53 0.36c0.07,-21.16 1.62,-74.67 -2.29,-90.72 -9.86,-40.56 -57.95,-48.25 -82.44,-27.5 -4.13,3.5 -3.31,4.37 -7.1,5.44l-0.12 -67.89c-13.23,-0.83 -12.59,7.47 -24.83,17.97 -9.93,8.52 -6.33,13.68 -6.27,36.37 0.03,9.87 -0.07,19.74 -0.04,29.6z"/>
  <path fill="#010101" d="M816.32 83.03c-0.59,-4.51 -1.39,-11.45 -3.59,-15.02l-27.2 -0.05 0.37 127.52 31.03 0.17c0.95,-21.82 -0.49,-44.4 -0.02,-66.3 1,-45.68 61.66,-47.37 62.18,0.02 0.23,20.93 -0.98,46.26 0.64,66.6l30.98 0.11c1.84,-17.22 0.12,-42.18 0.12,-60 -0.01,-19.72 -1.57,-34.92 -11.37,-48.55 -17.12,-23.81 -51.81,-27.78 -74.43,-11.74 -3.61,2.57 -5.11,5.12 -8.71,7.24z"/>
  <path fill="#010101" d="M229.71 81.22l-2.41 -14.54 -27.57 -0.39c-0.59,12.13 0.52,121.64 1.93,126.69l29.85 0.03c0.78,-6.73 -0.6,-51.12 -0.37,-63.63 0.85,-48.24 59.41,-49.17 60.84,-1.94 0.66,21.64 -0.36,44.19 0.63,65.65l30.95 0.26c1.93,-16.45 -0.2,-42.68 -0.26,-60.14 -0.07,-18.12 -2.07,-36.22 -11.16,-48.58 -13.99,-19.01 -41.06,-25.68 -64.87,-15.45 -7.64,3.28 -13.54,10.8 -17.56,12.04z"/>
  <path fill="#010101" d="M1045.4 180.01l-20.43 -21.29c-4.89,2.45 -5.6,6.89 -18.37,10.66 -7.74,2.29 -18.38,2.27 -25.67,-0.92 -11.93,-5.24 -22.44,-17.4 -22.35,-35.23 0.13,-28.24 21.4,-43.28 45.82,-37.93 10.28,2.25 12.99,6.8 19.4,10.33 4.25,-3.71 10.1,-11.78 19.17,-19.88 -3.54,-8.01 -20.26,-16.69 -32.06,-18.98 -44.44,-8.64 -86.68,18.02 -84.83,67.4 2.7,72.13 85.37,81.54 119.32,45.84z"/>
  <path fill="#010101" d="M35.7 191.83c4.63,-15.53 -6.25,-51.07 4.86,-62.93 11.34,-12.12 44.11,-2.51 61.61,-6.05l14.29 -29.26c-16.64,-1.59 -45.01,-0.84 -62.07,-0.31 -21.2,0.65 -32.48,9.21 -41.33,20.53 -14.7,18.8 -10.7,39.06 -10.63,66.2 0.01,4.73 -1.36,11.16 2.45,11.94 1.98,0.4 28.17,0.22 30.82,-0.12z"/>
  <path fill="#010101" d="M1.27 91.72l32.77 0.02c2.03,-6.52 -1.07,-20.24 2.24,-30.13 2.75,-8.19 8.11,-13.49 16.33,-16.12 9.06,-2.91 52.56,-1.65 64.84,-1.26 1.42,-1.94 14.04,-28.44 14.55,-30.62 -17.03,-0.56 -34.68,-0.06 -51.8,-0.07 -18.1,-0.02 -31.68,-1.8 -47.35,5.47 -10.78,5 -21.16,15.39 -26.29,26.2 -4.86,10.23 -8.69,33.79 -5.29,46.51z"/>
  <path fill="#010101" d="M147.82 192.37l31.18 0.44 -1.2 -125.75c-5.13,-1.5 -25.3,-1 -31.44,-0.45l1.46 125.76z"/>
  <path fill="#010101" d="M153.53 12.46c-8.65,3.13 -14.74,14.22 -10.36,25.34 3.2,8.14 13.36,14.86 24.99,10.5 23.44,-8.8 9.65,-44.61 -14.63,-35.84z"/>
 </g>
</svg>
